<svg t="1695136351164" class="icon" viewBox="0 0 1024 1024" version="1.1" xmlns="http://www.w3.org/2000/svg" p-id="1468" width="64" height="64"><path d="M834.152388 1024h-1.25266c-139.771029-4.235184-313.672078-109.62765-517.229359-313.17499C112.361631 507.267728 6.979107 333.605282 2.495379 194.082796 0.497087 129.063767 151.213981 20.927379 152.725126 19.68466c42.113243-29.149204 88.948816-18.441942 108.384932 8.718913 11.959922 16.692194 123.824466 186.109515 135.784389 205.297087 14.196816 22.170097 12.45701 54.808854-4.732272 86.950524-7.973282 15.200932-34.388505 61.787961-48.585321 86.701981 16.195107 22.428583 54.560311 71.51099 129.053826 146.253049 74.752 74.742058 123.834408 113.117204 146.253048 129.31231 24.914019-14.206757 71.51099-40.612039 86.950524-48.833864 31.644583-16.702136 64.034796-18.690485 86.204894-4.980815 21.67301 13.202641 193.098563 127.314019 205.297087 135.784388 27.409398 19.426175 38.623689 66.520233 8.977398 108.872078-0.994175 1.491262-107.639301 150.239689-172.161243 150.239689zM206.042718 63.03068c-4.473786 0-11.20435 1.25266-18.690485 6.482019C143.75767 99.904621 67.275806 171.167068 63.03068 192.840078c4.990757 152.97367 163.44233 342.831223 295.498563 474.877514 132.046291 132.046291 321.893903 290.75635 475.613204 295.488622 20.93732-3.976699 91.941282-80.468505 122.343145-124.321554 8.967456-12.705553 6.969165-22.667184 5.229359-24.914019-12.45701-8.470369-182.132816-121.339029-201.320388-133.050408-2.236893-0.745631-12.447068-0.497087-26.405281 6.730563-20.927379 11.214291-101.14734 57.304233-101.14734 57.304233a30.143379 30.143379 0 0 1-30.401864-0.248544c-2.485437-1.491262-60.545243-36.128311-172.65833-148.241398-112.113087-112.123029-146.740194-169.92435-147.992855-172.409786a30.15332 30.15332 0 0 1 0-30.401864s46.089942-80.478447 57.05569-101.405825c7.476194-13.948272 7.724738-23.909903 6.969165-26.405282-13.699728-21.424466-123.575922-187.859262-133.537554-201.817476-0.994175-0.238602-2.982524-0.994175-6.233476-0.994174z" fill="#2E323F" p-id="1469"></path></svg>